<svg width="16" height="16" margin-top="auto" margin-bottom="auto"  viewBox="0 0 16 16" fill="none" xmlns="http://www.w3.org/2000/svg">
<path d="M10.2813 2H5.71875C5.65383 1.99978 5.58949 2.01236 5.52944 2.03702C5.46938 2.06169 5.41478 2.09796 5.36875 2.14375L2.14375 5.36875C2.09796 5.41478 2.06169 5.46938 2.03702 5.52944C2.01236 5.58949 1.99978 5.65383 2 5.71875V10.2813C1.99978 10.3462 2.01236 10.4105 2.03702 10.4706C2.06169 10.5306 2.09796 10.5852 2.14375 10.6313L5.36875 13.8563C5.41478 13.902 5.46938 13.9383 5.52944 13.963C5.58949 13.9877 5.65383 14.0002 5.71875 14H10.2813C10.3462 14.0002 10.4105 13.9877 10.4706 13.963C10.5306 13.9383 10.5852 13.902 10.6313 13.8563L13.8563 10.6313C13.902 10.5852 13.9383 10.5306 13.963 10.4706C13.9877 10.4105 14.0002 10.3462 14 10.2813V5.71875C14.0002 5.65383 13.9877 5.58949 13.963 5.52944C13.9383 5.46938 13.902 5.41478 13.8563 5.36875L10.6313 2.14375C10.5852 2.09796 10.5306 2.06169 10.4706 2.03702C10.4105 2.01236 10.3462 1.99978 10.2813 2Z" fill="#FFECEC"/>
<path fill-rule="evenodd" clip-rule="evenodd" d="M8 4.5C8.27614 4.5 8.5 4.72386 8.5 5V8.5C8.5 8.77614 8.27614 9 8 9C7.72386 9 7.5 8.77614 7.5 8.5V5C7.5 4.72386 7.72386 4.5 8 4.5Z" fill="#FF4040"/>
<path fill-rule="evenodd" clip-rule="evenodd" d="M5.33948 1.57451C5.46003 1.525 5.58915 1.49968 5.71947 1.5H10.2805C10.4109 1.49968 10.54 1.525 10.6605 1.57451C10.7814 1.62416 10.8913 1.69715 10.9839 1.78933L10.9844 1.78976L14.2098 5.0152L14.2102 5.01564L14.2107 5.01608C14.3028 5.1087 14.3758 5.2186 14.4255 5.33948C14.475 5.4601 14.5003 5.58929 14.5 5.71968V10.2803C14.5003 10.4107 14.475 10.5399 14.4255 10.6605C14.3758 10.7814 14.3029 10.8913 14.2107 10.9839L14.2102 10.9844L14.2098 10.9848L10.9848 14.2098L10.9844 14.2102L10.9839 14.2107C10.8913 14.3029 10.7814 14.3758 10.6605 14.4255C10.5399 14.475 10.4107 14.5003 10.2803 14.5H5.71968C5.58929 14.5003 5.4601 14.475 5.33948 14.4255C5.2186 14.3758 5.1087 14.3028 5.01608 14.2107L5.01564 14.2102L5.0152 14.2098L1.78976 10.9844L1.78933 10.9839C1.69715 10.8913 1.62416 10.7814 1.57451 10.6605C1.525 10.54 1.49968 10.4109 1.5 10.2805V5.71947C1.49968 5.58915 1.525 5.46003 1.57451 5.33948C1.62416 5.2186 1.69715 5.1087 1.78933 5.01608L1.78976 5.01564L5.01564 1.78976L5.01608 1.78933C5.1087 1.69715 5.2186 1.62416 5.33948 1.57451ZM10.2813 1.99991V2.49375L10.283 2.49203L10.2813 1.99991ZM10.283 2.49375L10.2813 2.49549V2.49976C10.2818 2.49992 10.2824 2.5 10.283 2.5L10.283 2.49375ZM10.2804 2.5L13.5 5.71961V10.2804L10.2804 13.5H5.71961L2.5 10.2804V5.71961L5.71961 2.5H10.2804Z" fill="#FF4040"/>
<path d="M8 11.5C8.41421 11.5 8.75 11.1642 8.75 10.75C8.75 10.3358 8.41421 10 8 10C7.58579 10 7.25 10.3358 7.25 10.75C7.25 11.1642 7.58579 11.5 8 11.5Z" fill="#FF4040"/>
</svg>
